<svg width="32" height="33" viewBox="0 0 32 33" fill="none" xmlns="http://www.w3.org/2000/svg">
<g id="mdi:gmail">
<path id="Vector" d="M26.6667 24.6667H24V13L16 18L7.99999 13V24.6667H5.33332V8.66667H6.93332L16 14.3333L25.0667 8.66667H26.6667M26.6667 6H5.33332C3.85332 6 2.66666 7.18667 2.66666 8.66667V24.6667C2.66666 25.3739 2.94761 26.0522 3.4477 26.5523C3.9478 27.0524 4.62608 27.3333 5.33332 27.3333H26.6667C27.3739 27.3333 28.0522 27.0524 28.5523 26.5523C29.0524 26.0522 29.3333 25.3739 29.3333 24.6667V8.66667C29.3333 7.95942 29.0524 7.28115 28.5523 6.78105C28.0522 6.28095 27.3739 6 26.6667 6Z" fill="white"/>
</g>
</svg>
