<svg width="32" height="33" viewBox="0 0 32 33" fill="none" xmlns="http://www.w3.org/2000/svg">
<g id="bxl:instagram-alt">
<path id="Vector" d="M27.9293 11.74C27.9159 10.7302 27.7268 9.73039 27.3707 8.78536C27.0618 7.98823 26.5901 7.26429 25.9856 6.6598C25.3811 6.05531 24.6571 5.58356 23.86 5.27469C22.9271 4.9245 21.9416 4.73515 20.9453 4.71469C19.6627 4.65736 19.256 4.64136 16 4.64136C12.744 4.64136 12.3267 4.64136 11.0533 4.71469C10.0575 4.7353 9.07247 4.92465 8.14 5.27469C7.34275 5.58334 6.6187 6.05502 6.01418 6.65953C5.40966 7.26405 4.93799 7.9881 4.62934 8.78536C4.27844 9.71753 4.0895 10.7028 4.07067 11.6987C4.01334 12.9827 3.996 13.3894 3.996 16.6454C3.996 19.9014 3.996 20.3174 4.07067 21.592C4.09067 22.5894 4.27867 23.5734 4.62934 24.508C4.93851 25.305 5.41053 26.0288 6.01525 26.6331C6.61997 27.2373 7.34409 27.7088 8.14134 28.0174C9.07125 28.3816 10.0565 28.5845 11.0547 28.6174C12.3387 28.6747 12.7453 28.692 16.0013 28.692C19.2573 28.692 19.6747 28.692 20.948 28.6174C21.9442 28.5977 22.9298 28.4088 23.8627 28.0587C24.6596 27.7495 25.3833 27.2776 25.9878 26.6731C26.5922 26.0687 27.0641 25.3449 27.3733 24.548C27.724 23.6147 27.912 22.6307 27.932 21.632C27.9893 20.3494 28.0067 19.9427 28.0067 16.6854C28.004 13.4294 28.004 13.016 27.9293 11.74ZM15.992 22.8027C12.5867 22.8027 9.828 20.044 9.828 16.6387C9.828 13.2334 12.5867 10.4747 15.992 10.4747C17.6268 10.4747 19.1946 11.1241 20.3506 12.2801C21.5066 13.4361 22.156 15.0039 22.156 16.6387C22.156 18.2735 21.5066 19.8413 20.3506 20.9973C19.1946 22.1533 17.6268 22.8027 15.992 22.8027ZM22.4013 11.684C22.2125 11.6842 22.0255 11.6471 21.8511 11.575C21.6766 11.5028 21.5181 11.3969 21.3846 11.2634C21.2511 11.1299 21.1452 10.9714 21.0731 10.7969C21.0009 10.6225 20.9638 10.4355 20.964 10.2467C20.964 10.058 21.0012 9.87121 21.0734 9.6969C21.1456 9.5226 21.2514 9.36422 21.3848 9.23081C21.5182 9.09741 21.6766 8.99158 21.8509 8.91938C22.0252 8.84718 22.212 8.81002 22.4007 8.81002C22.5893 8.81002 22.7762 8.84718 22.9505 8.91938C23.1248 8.99158 23.2831 9.09741 23.4165 9.23081C23.55 9.36422 23.6558 9.5226 23.728 9.6969C23.8002 9.87121 23.8373 10.058 23.8373 10.2467C23.8373 11.0414 23.1947 11.684 22.4013 11.684Z" fill="white"/>
<path id="Vector_2" d="M15.992 20.6428C18.2034 20.6428 19.996 18.8501 19.996 16.6388C19.996 14.4274 18.2034 12.6348 15.992 12.6348C13.7807 12.6348 11.988 14.4274 11.988 16.6388C11.988 18.8501 13.7807 20.6428 15.992 20.6428Z" fill="white"/>
</g>
</svg>
