<svg width="24" height="25" viewBox="0 0 24 25" fill="none" xmlns="http://www.w3.org/2000/svg">
<g id="vuesax/bold/location">
<path id="Vector" d="M20.62 9.11675C19.57 4.49675 15.54 2.41675 12 2.41675C12 2.41675 12 2.41675 11.99 2.41675C8.45997 2.41675 4.41997 4.48675 3.36997 9.10675C2.19997 14.2667 5.35997 18.6367 8.21997 21.3867C9.27997 22.4067 10.64 22.9167 12 22.9167C13.36 22.9167 14.72 22.4067 15.77 21.3867C18.63 18.6367 21.79 14.2767 20.62 9.11675ZM12 14.1267C10.26 14.1267 8.84997 12.7167 8.84997 10.9767C8.84997 9.23675 10.26 7.82675 12 7.82675C13.74 7.82675 15.15 9.23675 15.15 10.9767C15.15 12.7167 13.74 14.1267 12 14.1267Z" fill="white"/>
</g>
</svg>
