<svg width="32" height="33" viewBox="0 0 32 33" fill="none" xmlns="http://www.w3.org/2000/svg">
<g id="ic:baseline-tiktok">
<path id="Vector" d="M22.1334 8.42663C21.2219 7.38612 20.7196 6.04987 20.72 4.66663H16.6V21.2C16.5682 22.0947 16.1905 22.9421 15.5464 23.5639C14.9022 24.1856 14.042 24.5332 13.1467 24.5333C11.2534 24.5333 9.68003 22.9866 9.68003 21.0666C9.68003 18.7733 11.8934 17.0533 14.1734 17.76V13.5466C9.57336 12.9333 5.54669 16.5066 5.54669 21.0666C5.54669 25.5066 9.22669 28.6666 13.1334 28.6666C17.32 28.6666 20.72 25.2666 20.72 21.0666V12.68C22.3907 13.8798 24.3965 14.5235 26.4534 14.52V10.4C26.4534 10.4 23.9467 10.52 22.1334 8.42663Z" fill="white"/>
</g>
</svg>
