<svg width="32" height="33" viewBox="0 0 32 33" fill="none" xmlns="http://www.w3.org/2000/svg">
<g id="dashicons:whatsapp">
<path id="Vector" d="M26.88 9.78675C23.04 3.86675 15.2 2.10675 9.12001 5.78675C3.20001 9.46675 1.28001 17.4667 5.12001 23.3867L5.44001 23.8667L4.16001 28.6667L8.96001 27.3867L9.44001 27.7067C11.52 28.8267 13.76 29.4667 16 29.4667C18.4 29.4667 20.8 28.8267 22.88 27.5467C28.8 23.7067 30.56 15.8667 26.88 9.78675ZM23.52 22.1067C22.88 23.0667 22.08 23.7067 20.96 23.8667C20.32 23.8667 19.52 24.1867 16.32 22.9067C13.6 21.6267 11.36 19.5467 9.76001 17.1467C8.80001 16.0267 8.32001 14.5867 8.16001 13.1467C8.16001 11.8667 8.64001 10.7467 9.44001 9.94675C9.76001 9.62675 10.08 9.46675 10.4 9.46675H11.2C11.52 9.46675 11.84 9.46675 12 10.1067C12.32 10.9067 13.12 12.8267 13.12 12.9867C13.28 13.1467 13.28 13.4667 13.12 13.6267C13.28 13.9467 13.12 14.2667 12.96 14.4267C12.8 14.5867 12.64 14.9067 12.48 15.0667C12.16 15.2267 12 15.5467 12.16 15.8667C12.8 16.8267 13.6 17.7867 14.4 18.5867C15.36 19.3867 16.32 20.0267 17.44 20.5067C17.76 20.6667 18.08 20.6667 18.24 20.3467C18.4 20.0267 19.2 19.2267 19.52 18.9067C19.84 18.5867 20 18.5867 20.32 18.7467L22.88 20.0267C23.2 20.1867 23.52 20.3467 23.68 20.5067C23.84 20.9867 23.84 21.6267 23.52 22.1067Z" fill="white"/>
</g>
</svg>
