<svg width="32" height="33" viewBox="0 0 32 33" fill="none" xmlns="http://www.w3.org/2000/svg">
<g id="akar-icons:youtube-fill" clip-path="url(#clip0_4_241)">
<g id="Group">
<g id="Group_2">
<path id="Vector" d="M31.3335 9.34269C31.1524 8.69633 30.7994 8.11115 30.3122 7.64935C29.8113 7.17336 29.1973 6.83287 28.5282 6.66002C26.0242 6.00002 15.9922 6.00002 15.9922 6.00002C11.81 5.95244 7.62878 6.16172 3.47221 6.62669C2.80313 6.8123 2.1903 7.1604 1.68821 7.64002C1.19488 8.11469 0.837546 8.70002 0.650879 9.34135C0.20247 11.757 -0.0153981 14.2098 0.000212559 16.6667C-0.0157874 19.1214 0.201546 21.5734 0.650879 23.992C0.833546 24.6307 1.18955 25.2134 1.68421 25.684C2.17888 26.1547 2.79488 26.4947 3.47221 26.6747C6.00955 27.3334 15.9922 27.3334 15.9922 27.3334C20.1798 27.381 24.3663 27.1717 28.5282 26.7067C29.1973 26.5338 29.8113 26.1933 30.3122 25.7174C30.7992 25.2557 31.1518 24.6704 31.3322 24.024C31.7923 21.6093 32.0161 19.1555 32.0002 16.6974C32.0348 14.2288 31.8114 11.7634 31.3335 9.34135V9.34269ZM12.8029 21.232V12.1027L21.1495 16.668L12.8029 21.232Z" fill="white"/>
</g>
</g>
</g>
<defs>
<clipPath id="clip0_4_241">
<rect width="32" height="32" fill="white" transform="translate(0 0.666748)"/>
</clipPath>
</defs>
</svg>
